<mxfile host="app.diagrams.net" modified="2023-06-05T17:28:25.043Z" agent="Mozilla/5.0 (Windows NT 10.0; Win64; x64) AppleWebKit/537.36 (KHTML, like Gecko) Chrome/112.0.0.0 Safari/537.36" etag="FN1KDQmVuSAcrjv1dr7a" version="21.3.7" type="device">
  <diagram id="6YwQQIW8eCQRHDkm4CSs" name="Page-1">
    <mxGraphModel dx="1036" dy="582" grid="1" gridSize="10" guides="1" tooltips="1" connect="1" arrows="1" fold="1" page="1" pageScale="1" pageWidth="827" pageHeight="1169" math="0" shadow="0">
      <root>
        <mxCell id="0" />
        <mxCell id="1" parent="0" />
        <mxCell id="DnkCzbvQFBXvj7n7dTfT-8" value="" style="edgeStyle=orthogonalEdgeStyle;rounded=0;orthogonalLoop=1;jettySize=auto;html=1;" parent="1" source="DnkCzbvQFBXvj7n7dTfT-2" edge="1">
          <mxGeometry relative="1" as="geometry">
            <mxPoint x="390" y="290" as="targetPoint" />
          </mxGeometry>
        </mxCell>
        <mxCell id="DnkCzbvQFBXvj7n7dTfT-2" value="string[ ]array1&amp;nbsp;&lt;br&gt;string array2&lt;br&gt;int count = 0" style="shape=parallelogram;perimeter=parallelogramPerimeter;whiteSpace=wrap;html=1;fixedSize=1;" parent="1" vertex="1">
          <mxGeometry x="330" y="120" width="120" height="60" as="geometry" />
        </mxCell>
        <mxCell id="DnkCzbvQFBXvj7n7dTfT-7" value="" style="edgeStyle=orthogonalEdgeStyle;rounded=0;orthogonalLoop=1;jettySize=auto;html=1;" parent="1" target="DnkCzbvQFBXvj7n7dTfT-4" edge="1">
          <mxGeometry relative="1" as="geometry">
            <mxPoint x="390" y="370" as="sourcePoint" />
          </mxGeometry>
        </mxCell>
        <mxCell id="B7fp_Nzf1htRCQnwWERk-2" value="" style="edgeStyle=orthogonalEdgeStyle;rounded=0;orthogonalLoop=1;jettySize=auto;html=1;" parent="1" source="DnkCzbvQFBXvj7n7dTfT-4" target="DnkCzbvQFBXvj7n7dTfT-5" edge="1">
          <mxGeometry relative="1" as="geometry" />
        </mxCell>
        <mxCell id="Br4a4FcXuhAj5pnMZz5r-9" style="edgeStyle=orthogonalEdgeStyle;rounded=0;orthogonalLoop=1;jettySize=auto;html=1;entryX=0;entryY=0.5;entryDx=0;entryDy=0;" edge="1" parent="1" source="DnkCzbvQFBXvj7n7dTfT-4" target="Br4a4FcXuhAj5pnMZz5r-7">
          <mxGeometry relative="1" as="geometry" />
        </mxCell>
        <mxCell id="DnkCzbvQFBXvj7n7dTfT-4" value="if (array1[i].length &amp;lt;= 3)" style="rhombus;whiteSpace=wrap;html=1;" parent="1" vertex="1">
          <mxGeometry x="277.5" y="470" width="225" height="80" as="geometry" />
        </mxCell>
        <mxCell id="DnkCzbvQFBXvj7n7dTfT-17" value="" style="edgeStyle=orthogonalEdgeStyle;rounded=0;orthogonalLoop=1;jettySize=auto;html=1;" parent="1" source="DnkCzbvQFBXvj7n7dTfT-5" edge="1">
          <mxGeometry relative="1" as="geometry">
            <mxPoint x="390" y="290" as="targetPoint" />
          </mxGeometry>
        </mxCell>
        <mxCell id="DnkCzbvQFBXvj7n7dTfT-5" value="array2[count] = array1[i]&lt;br&gt;count++;" style="whiteSpace=wrap;html=1;" parent="1" vertex="1">
          <mxGeometry x="40" y="225" width="177.5" height="50" as="geometry" />
        </mxCell>
        <mxCell id="B7fp_Nzf1htRCQnwWERk-6" value="Yes" style="text;html=1;align=center;verticalAlign=middle;resizable=0;points=[];autosize=1;strokeColor=none;fillColor=none;" parent="1" vertex="1">
          <mxGeometry x="177.5" y="490" width="40" height="20" as="geometry" />
        </mxCell>
        <mxCell id="B7fp_Nzf1htRCQnwWERk-10" value="No" style="text;html=1;align=center;verticalAlign=middle;resizable=0;points=[];autosize=1;strokeColor=none;fillColor=none;" parent="1" vertex="1">
          <mxGeometry x="570" y="490" width="30" height="20" as="geometry" />
        </mxCell>
        <mxCell id="Br4a4FcXuhAj5pnMZz5r-4" style="edgeStyle=orthogonalEdgeStyle;rounded=0;orthogonalLoop=1;jettySize=auto;html=1;entryX=0.5;entryY=0;entryDx=0;entryDy=0;" edge="1" parent="1" source="Br4a4FcXuhAj5pnMZz5r-2" target="DnkCzbvQFBXvj7n7dTfT-4">
          <mxGeometry relative="1" as="geometry" />
        </mxCell>
        <mxCell id="Br4a4FcXuhAj5pnMZz5r-2" value="for (int i = 0;&lt;br style=&quot;border-color: var(--border-color);&quot;&gt;i &amp;lt; array1.length;&lt;br style=&quot;border-color: var(--border-color);&quot;&gt;i++)" style="shape=parallelogram;perimeter=parallelogramPerimeter;whiteSpace=wrap;html=1;fixedSize=1;" vertex="1" parent="1">
          <mxGeometry x="330" y="290" width="120" height="60" as="geometry" />
        </mxCell>
        <mxCell id="Br4a4FcXuhAj5pnMZz5r-7" value="print" style="rounded=1;whiteSpace=wrap;html=1;" vertex="1" parent="1">
          <mxGeometry x="640" y="480" width="120" height="60" as="geometry" />
        </mxCell>
      </root>
    </mxGraphModel>
  </diagram>
</mxfile>
